<svg width="430" height="646" viewBox="0 0 430 646" fill="none" xmlns="http://www.w3.org/2000/svg">
<g filter="url(#filter0_d_111_5106)">
<path fill-rule="evenodd" clip-rule="evenodd" d="M23.1799 34.9202C21 39.1984 21 44.799 21 56V605.438H32.2464C32.2464 599.262 36.778 594.256 42.3681 594.256C47.9582 594.256 52.4899 599.262 52.4899 605.438H61.487C61.487 599.262 66.0186 594.256 71.6087 594.256C77.1988 594.256 81.7304 599.262 81.7304 605.438H90.7275C90.7275 599.262 95.2592 594.256 100.849 594.256C106.439 594.256 110.971 599.262 110.971 605.438H119.968C119.968 599.262 124.5 594.256 130.09 594.256C135.68 594.256 140.212 599.262 140.212 605.438H149.209C149.209 599.262 153.74 594.256 159.33 594.256C164.921 594.256 169.452 599.262 169.452 605.438H178.449C178.449 599.262 182.981 594.256 188.571 594.256C194.161 594.256 198.693 599.262 198.693 605.438H207.69C207.69 599.262 212.222 594.256 217.812 594.256C223.402 594.256 227.933 599.262 227.933 605.438H236.93C236.93 599.262 241.462 594.256 247.052 594.256C252.642 594.256 257.174 599.262 257.174 605.438H266.171C266.171 599.262 270.703 594.256 276.293 594.256C281.883 594.256 286.414 599.262 286.414 605.438H295.412C295.412 599.262 299.943 594.256 305.533 594.256C311.123 594.256 315.655 599.262 315.655 605.438H324.652C324.652 599.262 329.184 594.256 334.774 594.256C340.364 594.256 344.896 599.262 344.896 605.438H353.893C353.893 599.262 358.424 594.256 364.014 594.256C369.605 594.256 374.136 599.262 374.136 605.438H383.133C383.133 599.262 387.665 594.256 393.255 594.256C398.845 594.256 403.377 599.262 403.377 605.438H409V56C409 44.799 409 39.1984 406.82 34.9202C404.903 31.1569 401.843 28.0973 398.08 26.1799C393.802 24 388.201 24 377 24H53C41.799 24 36.1984 24 31.9202 26.1799C28.1569 28.0973 25.0973 31.1569 23.1799 34.9202Z" fill="white"/>
</g>
<defs>
<filter id="filter0_d_111_5106" x="-11" y="0" width="452" height="645.438" filterUnits="userSpaceOnUse" color-interpolation-filters="sRGB">
<feFlood flood-opacity="0" result="BackgroundImageFix"/>
<feColorMatrix in="SourceAlpha" type="matrix" values="0 0 0 0 0 0 0 0 0 0 0 0 0 0 0 0 0 0 127 0" result="hardAlpha"/>
<feOffset dy="8"/>
<feGaussianBlur stdDeviation="16"/>
<feComposite in2="hardAlpha" operator="out"/>
<feColorMatrix type="matrix" values="0 0 0 0 0.4 0 0 0 0 0.4 0 0 0 0 0.4 0 0 0 0.16 0"/>
<feBlend mode="normal" in2="BackgroundImageFix" result="effect1_dropShadow_111_5106"/>
<feBlend mode="normal" in="SourceGraphic" in2="effect1_dropShadow_111_5106" result="shape"/>
</filter>
</defs>
</svg>
